<?xml version="1.0" encoding="utf-8"?>
<!-- Generator: Adobe Illustrator 25.4.1, SVG Export Plug-In . SVG Version: 6.00 Build 0)  -->
<svg version="1.1" id="Layer_1" xmlns="http://www.w3.org/2000/svg" xmlns:xlink="http://www.w3.org/1999/xlink" x="0px" y="0px"
	 viewBox="0 0 189 152.6" style="enable-background:new 0 0 189 152.6;" xml:space="preserve">
<path d="M118,73.2c4.6-7.2,7.3-15.8,7.3-25c0-25.8-20.9-46.7-46.7-46.7S31.9,22.4,31.9,48.2c-10.1,0-20.2,0-30.3,0
	c0,16.7,13.6,30.3,30.3,30.3c0.1,0,0.1,0,0.2,0c2.7,40.5,36.4,72.6,77.7,72.6c43,0,77.9-34.9,77.9-77.9
	C164.3,73.2,141.1,73.2,118,73.2z M65.6,27.4C71.3,27.4,76,32,76,37.8c0,5.7-4.6,10.4-10.4,10.4c-5.7,0-10.4-4.6-10.4-10.4
	C55.2,32.1,59.9,27.4,65.6,27.4z M109.6,127.6c-17,0-30.9-13.8-30.9-30.9c20.6,0,41.1,0,61.7,0C140.5,113.8,126.7,127.6,109.6,127.6
	z"/>
</svg>
