<svg xmlns="http://www.w3.org/2000/svg" viewBox="0 0 595.3 595.3"><defs><style>.a{fill:#fff;}.b{fill:red;}</style></defs><circle class="a" cx="297.6" cy="297.6" r="297.6"/><path d="M142.6,495.6a86.8,86.8,0,0,1-12.7-1.2,63.4,63.4,0,0,1-13.2-3.3l4.9-31.2a68.4,68.4,0,0,0,9.5,2,59.8,59.8,0,0,0,9.9.8c13.1,0,22.5-4,28.1-12.1s8.5-19.9,8.5-35.6V204.9h38.2V414.6q0,41.1-18.7,61.1C184.6,489,166.5,495.6,142.6,495.6Zm53.9-329.3a24.6,24.6,0,0,1-17.5-6.8q-7.2-6.9-7.2-18.3t7.2-18.3a25.9,25.9,0,0,1,35,0c4.7,4.5,7.2,10.6,7.2,18.3s-2.5,13.7-7.2,18.3A24.8,24.8,0,0,1,196.5,166.3Z"/><path class="b" d="M478.6,310.6c0,17.3-2.6,32.9-7.6,46.9a98.2,98.2,0,0,1-22,35.7,97.2,97.2,0,0,1-35.4,22.9c-14,5.3-29.9,8-47.7,8-7.4,0-15.2-.4-23.2-1s-16.1-1.6-23.9-2.7-15.3-2.4-22.4-3.9-13.4-3.1-18.9-4.7V109.5l61.3-9.9V207.4a110.7,110.7,0,0,1,21.3-7,106.9,106.9,0,0,1,23.9-2.5c15.3,0,28.9,2.7,40.7,8a79.6,79.6,0,0,1,29.6,22.9c8,9.8,14,21.7,18.1,35.5A163.1,163.1,0,0,1,478.6,310.6Zm-62.5-1.7c0-39.4-14.6-59.2-43.6-59.2a73.9,73.9,0,0,0-18.7,2.5,50.2,50.2,0,0,0-15,6.2V369.8a109.5,109.5,0,0,0,11.5,1.4,142.5,142.5,0,0,0,15.2.7c16.7,0,29.3-5.8,37.8-17.3S416.1,327.9,416.1,308.9Z"/></svg>